<?xml version="1.0" standalone="no"?>
<!DOCTYPE svg PUBLIC "-//W3C//DTD SVG 20010904//EN"
 "http://www.w3.org/TR/2001/REC-SVG-20010904/DTD/svg10.dtd">
<svg version="1.0" xmlns="http://www.w3.org/2000/svg"
 width="260.000000pt" height="260.000000pt" viewBox="0 0 260.000000 260.000000"
 preserveAspectRatio="xMidYMid meet">
<metadata>
Created by potrace 1.11, written by Peter Selinger 2001-2013
</metadata>
<g transform="translate(0.000000,260.000000) scale(0.100000,-0.100000)"
fill="#000000" stroke="none">
<path d="M115 2434 c-43 -22 -64 -44 -86 -86 -37 -73 -18 -172 43 -223 l32
-27 1 -958 c0 -796 2 -960 14 -973 16 -20 119 -24 152 -7 19 10 19 32 19 974
l0 964 24 15 c80 53 97 194 33 269 -56 65 -162 89 -232 52z"/>
<path d="M1015 2246 c-217 -42 -575 -199 -611 -268 -22 -42 -21 -1156 1 -1198
35 -68 70 -65 236 15 298 142 549 193 741 149 81 -19 98 -25 250 -95 171 -80
257 -102 373 -95 133 8 274 51 456 141 150 74 134 -10 137 683 3 626 2 637
-42 667 -36 26 -73 16 -211 -55 -190 -100 -285 -129 -400 -126 -78 2 -99 7
-160 36 -117 55 -235 100 -330 126 -112 32 -329 41 -440 20z"/>
</g>
</svg>
